<svg id="visual" viewBox="0 0 900 600" width="900" height="600" xmlns="http://www.w3.org/2000/svg" xmlns:xlink="http://www.w3.org/1999/xlink" version="1.1"><rect x="0" y="0" width="900" height="600" fill="#001220"></rect><path d="M0 428L18.8 418.2C37.7 408.3 75.3 388.7 112.8 384.3C150.3 380 187.7 391 225.2 394.8C262.7 398.7 300.3 395.3 337.8 401.7C375.3 408 412.7 424 450.2 418.7C487.7 413.3 525.3 386.7 562.8 382.5C600.3 378.3 637.7 396.7 675.2 396.2C712.7 395.7 750.3 376.3 787.8 365.8C825.3 355.3 862.7 353.7 881.3 352.8L900 352L900 601L881.3 601C862.7 601 825.3 601 787.8 601C750.3 601 712.7 601 675.2 601C637.7 601 600.3 601 562.8 601C525.3 601 487.7 601 450.2 601C412.7 601 375.3 601 337.8 601C300.3 601 262.7 601 225.2 601C187.7 601 150.3 601 112.8 601C75.3 601 37.7 601 18.8 601L0 601Z" fill="#e53f71"></path><path d="M0 478L18.8 477.5C37.7 477 75.3 476 112.8 474.3C150.3 472.7 187.7 470.3 225.2 469.2C262.7 468 300.3 468 337.8 459C375.3 450 412.7 432 450.2 421.2C487.7 410.3 525.3 406.7 562.8 404.3C600.3 402 637.7 401 675.2 412.8C712.7 424.7 750.3 449.3 787.8 457.8C825.3 466.3 862.7 458.7 881.3 454.8L900 451L900 601L881.3 601C862.7 601 825.3 601 787.8 601C750.3 601 712.7 601 675.2 601C637.7 601 600.3 601 562.8 601C525.3 601 487.7 601 450.2 601C412.7 601 375.3 601 337.8 601C300.3 601 262.7 601 225.2 601C187.7 601 150.3 601 112.8 601C75.3 601 37.7 601 18.8 601L0 601Z" fill="#cd357b"></path><path d="M0 462L18.8 464.5C37.7 467 75.3 472 112.8 469.2C150.3 466.3 187.7 455.7 225.2 452.3C262.7 449 300.3 453 337.8 453.5C375.3 454 412.7 451 450.2 453.8C487.7 456.7 525.3 465.3 562.8 465.5C600.3 465.7 637.7 457.3 675.2 454C712.7 450.7 750.3 452.3 787.8 452.7C825.3 453 862.7 452 881.3 451.5L900 451L900 601L881.3 601C862.7 601 825.3 601 787.8 601C750.3 601 712.7 601 675.2 601C637.7 601 600.3 601 562.8 601C525.3 601 487.7 601 450.2 601C412.7 601 375.3 601 337.8 601C300.3 601 262.7 601 225.2 601C187.7 601 150.3 601 112.8 601C75.3 601 37.7 601 18.8 601L0 601Z" fill="#b23182"></path><path d="M0 507L18.8 511C37.7 515 75.3 523 112.8 524.5C150.3 526 187.7 521 225.2 512.8C262.7 504.7 300.3 493.3 337.8 494.3C375.3 495.3 412.7 508.7 450.2 514.8C487.7 521 525.3 520 562.8 513.2C600.3 506.3 637.7 493.7 675.2 494.2C712.7 494.7 750.3 508.3 787.8 511.8C825.3 515.3 862.7 508.7 881.3 505.3L900 502L900 601L881.3 601C862.7 601 825.3 601 787.8 601C750.3 601 712.7 601 675.2 601C637.7 601 600.3 601 562.8 601C525.3 601 487.7 601 450.2 601C412.7 601 375.3 601 337.8 601C300.3 601 262.7 601 225.2 601C187.7 601 150.3 601 112.8 601C75.3 601 37.7 601 18.8 601L0 601Z" fill="#933185"></path><path d="M0 572L18.8 569.5C37.7 567 75.3 562 112.8 560.7C150.3 559.3 187.7 561.7 225.2 558.2C262.7 554.7 300.3 545.3 337.8 541.2C375.3 537 412.7 538 450.2 539.3C487.7 540.7 525.3 542.3 562.8 545.7C600.3 549 637.7 554 675.2 555.2C712.7 556.3 750.3 553.7 787.8 553.2C825.3 552.7 862.7 554.3 881.3 555.2L900 556L900 601L881.3 601C862.7 601 825.3 601 787.8 601C750.3 601 712.7 601 675.2 601C637.7 601 600.3 601 562.8 601C525.3 601 487.7 601 450.2 601C412.7 601 375.3 601 337.8 601C300.3 601 262.7 601 225.2 601C187.7 601 150.3 601 112.8 601C75.3 601 37.7 601 18.8 601L0 601Z" fill="#723185"></path></svg>